<svg width="168" height="21" viewBox="0 0 168 21" fill="none" xmlns="http://www.w3.org/2000/svg">
<path fill-rule="evenodd" clip-rule="evenodd" d="M7.07252 13.8087C8.26858 13.8087 9.35958 13.2116 9.98904 12.5502V8.28382C9.38069 7.62236 8.28969 6.98236 7.07252 6.98236C4.86942 6.98236 3.4637 8.47553 3.4637 10.417C3.4637 12.337 4.86942 13.8087 7.07252 13.8087ZM6.48481 5.04089C8.03782 5.04089 9.21277 5.57455 9.98904 6.36382V5.23309H12.171V15.1955C12.171 18.758 9.92619 20.6141 6.86286 20.6141C4.70199 20.6141 3.40085 19.8248 2.70855 19.4619L3.19119 17.478C3.8835 17.9258 5.16352 18.6516 6.86286 18.6516C8.52047 18.6516 9.98904 17.7985 9.98904 15.6438V14.4487C9.19166 15.1955 7.97449 15.7502 6.48481 15.7502C3.338 15.7502 1.23997 13.3394 1.23997 10.417C1.23997 7.45211 3.338 5.04089 6.48481 5.04089Z" fill="#15573F"/>
<path d="M9.98904 12.5502L10.2064 12.757L10.289 12.6701V12.5502H9.98904ZM9.98904 8.28382H10.289V8.16684L10.2098 8.08074L9.98904 8.28382ZM9.98904 6.36382L9.77515 6.57418L10.289 7.09668V6.36382H9.98904ZM9.98904 5.23309V4.93309H9.68904V5.23309H9.98904ZM12.171 5.23309H12.471V4.93309H12.171V5.23309ZM2.70855 19.4619L2.41705 19.391L2.36164 19.6187L2.56926 19.7276L2.70855 19.4619ZM3.19119 17.478L3.35413 17.2261L2.99953 16.9967L2.8997 17.4071L3.19119 17.478ZM9.98904 14.4487H10.289V13.7567L9.78396 14.2297L9.98904 14.4487ZM7.07252 14.1087C8.36274 14.1087 9.52912 13.4686 10.2064 12.757L9.77171 12.3434C9.19003 12.9546 8.17443 13.5087 7.07252 13.5087V14.1087ZM10.289 12.5502V8.28382H9.68904V12.5502H10.289ZM10.2098 8.08074C9.55626 7.37009 8.38931 6.68236 7.07252 6.68236V7.28236C8.19008 7.28236 9.20511 7.87463 9.76822 8.4869L10.2098 8.08074ZM7.07252 6.68236C5.90127 6.68236 4.92068 7.08057 4.23167 7.75765C3.54307 8.43435 3.1637 9.37216 3.1637 10.417H3.7637C3.7637 9.52036 4.08719 8.74085 4.65222 8.1856C5.21686 7.63073 6.04067 7.28236 7.07252 7.28236V6.68236ZM3.1637 10.417C3.1637 11.4522 3.54388 12.3798 4.23309 13.0482C4.92238 13.7167 5.90255 14.1087 7.07252 14.1087V13.5087C6.03939 13.5087 5.21515 13.1648 4.65081 12.6175C4.08638 12.0701 3.7637 11.3018 3.7637 10.417H3.1637ZM6.48481 5.34089C7.96588 5.34089 9.06097 5.84804 9.77515 6.57418L10.2029 6.15346C9.36458 5.30107 8.10976 4.74089 6.48481 4.74089V5.34089ZM10.289 6.36382V5.23309H9.68904V6.36382H10.289ZM9.98904 5.53309H12.171V4.93309H9.98904V5.53309ZM11.871 5.23309V15.1955H12.471V5.23309H11.871ZM11.871 15.1955C11.871 16.9118 11.332 18.1824 10.4576 19.0246C9.58099 19.8689 8.33472 20.3141 6.86286 20.3141V20.9141C8.45433 20.9141 9.86215 20.4312 10.8738 19.4568C11.8876 18.4804 12.471 17.0417 12.471 15.1955H11.871ZM6.86286 20.3141C4.78339 20.3141 3.54124 19.5597 2.84784 19.1962L2.56926 19.7276C3.26047 20.0899 4.62058 20.9141 6.86286 20.9141V20.3141ZM3.00004 19.5328L3.48269 17.5489L2.8997 17.4071L2.41705 19.391L3.00004 19.5328ZM3.02826 17.7299C3.73767 18.1887 5.07714 18.9516 6.86286 18.9516V18.3516C5.24991 18.3516 4.02933 17.6628 3.35413 17.2261L3.02826 17.7299ZM6.86286 18.9516C7.73857 18.9516 8.59642 18.7266 9.24055 18.1854C9.89326 17.6369 10.289 16.795 10.289 15.6438H9.68904C9.68904 16.6473 9.35053 17.3093 8.85455 17.726C8.34999 18.15 7.64476 18.3516 6.86286 18.3516V18.9516ZM10.289 15.6438V14.4487H9.68904V15.6438H10.289ZM9.78396 14.2297C9.04273 14.924 7.89909 15.4502 6.48481 15.4502V16.0502C8.04989 16.0502 9.34059 15.4671 10.1941 14.6677L9.78396 14.2297ZM6.48481 15.4502C3.51852 15.4502 1.53997 13.189 1.53997 10.417H0.939975C0.939975 13.4899 3.15749 16.0502 6.48481 16.0502V15.4502ZM1.53997 10.417C1.53997 7.60094 3.52006 5.34089 6.48481 5.34089V4.74089C3.15595 4.74089 0.939975 7.30328 0.939975 10.417H1.53997Z" fill="#15573F"/>
<path fill-rule="evenodd" clip-rule="evenodd" d="M18.3785 8.19852C18.3785 7.43071 18.1895 6.93998 17.4977 6.93998C17.0568 6.93998 16.5952 7.13169 16.3222 7.30242L16.1754 5.57461C16.4067 5.36144 17.3504 5.04095 18.3157 5.04095C19.5746 5.04095 20.3086 5.65998 20.4977 6.96144C21.0643 5.78827 21.8823 5.04095 23.3513 5.04095C24.379 5.04095 25.1135 5.42486 25.3443 5.80925L24.9456 7.77169C24.7148 7.40925 24.0014 7.08925 23.0361 7.08925C21.4841 7.08925 20.8546 8.53949 20.5605 10.0331V16.3902H18.3785V8.19852Z" fill="#15573F"/>
<path fill-rule="evenodd" clip-rule="evenodd" d="M18.3785 8.19852C18.3785 7.43071 18.1895 6.93998 17.4977 6.93998C17.0568 6.93998 16.5952 7.13169 16.3222 7.30242L16.1754 5.57461C16.4067 5.36144 17.3504 5.04095 18.3157 5.04095C19.5746 5.04095 20.3086 5.65998 20.4977 6.96144C21.0643 5.78827 21.8823 5.04095 23.3513 5.04095C24.379 5.04095 25.1135 5.42486 25.3443 5.80925L24.9456 7.77169C24.7148 7.40925 24.0014 7.08925 23.0361 7.08925C21.4841 7.08925 20.8546 8.53949 20.5605 10.0331V16.3902H18.3785V8.19852Z" stroke="#15573F" stroke-width="0.6"/>
<path fill-rule="evenodd" clip-rule="evenodd" d="M36.8611 9.22268C36.8611 7.94268 36.0009 6.79048 34.0285 6.79048C31.9727 6.79048 30.7762 8.19829 30.6087 9.81975H36.8189C36.84 9.64902 36.8611 9.41488 36.8611 9.22268ZM38.8123 15.1739C37.6796 16.1129 36.1055 16.689 34.2593 16.689C30.1261 16.689 28.3217 14.0866 28.3217 10.8437C28.3217 7.55878 30.5454 4.93439 34.0708 4.93439C37.4066 4.93439 38.9591 7.02512 38.9591 9.58512C38.9591 10.2466 38.854 11.1427 38.7283 11.548H30.5665C30.7762 13.489 31.9305 14.8115 34.3222 14.8115C35.8329 14.8115 37.1125 14.2139 37.9521 13.5744L38.8123 15.1739Z" fill="#15573F"/>
<path d="M30.6087 9.81975L30.3103 9.78894L30.2762 10.1198H30.6087V9.81975ZM36.8189 9.81975V10.1198H37.0841L37.1166 9.85657L36.8189 9.81975ZM38.8123 15.1739L39.0038 15.4049L39.1929 15.2481L39.0765 15.0318L38.8123 15.1739ZM38.7283 11.548V11.848H38.9494L39.0149 11.6369L38.7283 11.548ZM30.5665 11.548V11.248H30.2324L30.2683 11.5803L30.5665 11.548ZM37.9521 13.5744L38.2163 13.4323L38.0499 13.1228L37.7703 13.3357L37.9521 13.5744ZM37.1611 9.22268C37.1611 8.51547 36.9225 7.82486 36.3934 7.31131C35.8635 6.797 35.0737 6.49048 34.0285 6.49048V7.09048C34.9557 7.09048 35.5822 7.36006 35.9755 7.74185C36.3696 8.1244 36.5611 8.64989 36.5611 9.22268H37.1611ZM34.0285 6.49048C31.8022 6.49048 30.4918 8.03179 30.3103 9.78894L30.9072 9.85057C31.0606 8.36479 32.1432 7.09048 34.0285 7.09048V6.49048ZM30.6087 10.1198H36.8189V9.51975H30.6087V10.1198ZM37.1166 9.85657C37.1384 9.68008 37.1611 9.43232 37.1611 9.22268H36.5611C36.5611 9.39743 36.5415 9.61796 36.5211 9.78294L37.1166 9.85657ZM38.6208 14.9429C37.5474 15.8328 36.043 16.389 34.2593 16.389V16.989C36.1679 16.989 37.8117 16.3931 39.0038 15.4049L38.6208 14.9429ZM34.2593 16.389C32.2584 16.389 30.8613 15.7613 29.9617 14.7797C29.0579 13.7935 28.6217 12.4122 28.6217 10.8437H28.0217C28.0217 12.518 28.4877 14.0594 29.5194 15.1851C30.5553 16.3155 32.127 16.989 34.2593 16.989V16.389ZM28.6217 10.8437C28.6217 9.26874 29.1543 7.86721 30.0934 6.862C31.0303 5.85921 32.3867 5.23439 34.0708 5.23439V4.63439C32.2295 4.63439 30.7113 5.32176 29.655 6.45239C28.601 7.58058 28.0217 9.1337 28.0217 10.8437H28.6217ZM34.0708 5.23439C35.6738 5.23439 36.8112 5.73483 37.549 6.50699C38.2895 7.2821 38.6591 8.36436 38.6591 9.58512H39.2591C39.2591 8.24588 38.8525 7.00277 37.9828 6.09251C37.1103 5.17931 35.8036 4.63439 34.0708 4.63439V5.23439ZM38.6591 9.58512C38.6591 10.2315 38.555 11.0941 38.4418 11.4592L39.0149 11.6369C39.1531 11.1913 39.2591 10.2617 39.2591 9.58512H38.6591ZM38.7283 11.248H30.5665V11.848H38.7283V11.248ZM30.2683 11.5803C30.3785 12.6005 30.7409 13.4914 31.4213 14.1269C32.1036 14.7641 33.0702 15.1115 34.3222 15.1115V14.5115C33.1825 14.5115 32.3761 14.1976 31.8309 13.6884C31.2837 13.1774 30.9642 12.4365 30.8648 11.5158L30.2683 11.5803ZM34.3222 15.1115C35.9115 15.1115 37.2533 14.4837 38.1339 13.813L37.7703 13.3357C36.9716 13.9441 35.7543 14.5115 34.3222 14.5115V15.1115ZM37.6879 13.7165L38.5481 15.316L39.0765 15.0318L38.2163 13.4323L37.6879 13.7165Z" fill="#15573F"/>
<path fill-rule="evenodd" clip-rule="evenodd" d="M51.3563 9.22268C51.3563 7.94268 50.4961 6.79048 48.5237 6.79048C46.4679 6.79048 45.2714 8.19829 45.1039 9.81975H51.3141C51.3352 9.64902 51.3563 9.41488 51.3563 9.22268ZM53.3075 15.1739C52.1748 16.1129 50.6006 16.689 48.7545 16.689C44.6213 16.689 42.8169 14.0866 42.8169 10.8437C42.8169 7.55878 45.0406 4.93439 48.5659 4.93439C51.9018 4.93439 53.4543 7.02512 53.4543 9.58512C53.4543 10.2466 53.3492 11.1427 53.2235 11.548H45.0617C45.2714 13.489 46.4257 14.8115 48.8173 14.8115C50.3281 14.8115 51.6077 14.2139 52.4473 13.5744L53.3075 15.1739Z" fill="#15573F"/>
<path d="M45.1039 9.81975L44.8055 9.78894L44.7714 10.1198H45.1039V9.81975ZM51.3141 9.81975V10.1198H51.5793L51.6118 9.85657L51.3141 9.81975ZM53.3075 15.1739L53.499 15.4049L53.688 15.2481L53.5717 15.0318L53.3075 15.1739ZM53.2235 11.548V11.848H53.4446L53.5101 11.6369L53.2235 11.548ZM45.0617 11.548V11.248H44.7276L44.7635 11.5803L45.0617 11.548ZM52.4473 13.5744L52.7115 13.4323L52.545 13.1228L52.2655 13.3357L52.4473 13.5744ZM51.6563 9.22268C51.6563 8.51547 51.4177 7.82486 50.8886 7.31131C50.3587 6.797 49.5689 6.49048 48.5237 6.49048V7.09048C49.4509 7.09048 50.0773 7.36006 50.4707 7.74185C50.8648 8.1244 51.0563 8.64989 51.0563 9.22268H51.6563ZM48.5237 6.49048C46.2974 6.49048 44.987 8.03179 44.8055 9.78894L45.4023 9.85057C45.5558 8.36479 46.6384 7.09048 48.5237 7.09048V6.49048ZM45.1039 10.1198H51.3141V9.51975H45.1039V10.1198ZM51.6118 9.85657C51.6336 9.68008 51.6563 9.43232 51.6563 9.22268H51.0563C51.0563 9.39743 51.0367 9.61796 51.0163 9.78294L51.6118 9.85657ZM53.116 14.9429C52.0426 15.8328 50.5382 16.389 48.7545 16.389V16.989C50.6631 16.989 52.3069 16.3931 53.499 15.4049L53.116 14.9429ZM48.7545 16.389C46.7536 16.389 45.3565 15.7613 44.4569 14.7797C43.5531 13.7935 43.1169 12.4122 43.1169 10.8437H42.5169C42.5169 12.518 42.9829 14.0594 44.0146 15.1851C45.0505 16.3155 46.6222 16.989 48.7545 16.989V16.389ZM43.1169 10.8437C43.1169 9.26874 43.6495 7.86721 44.5886 6.862C45.5255 5.85921 46.8819 5.23439 48.5659 5.23439V4.63439C46.7246 4.63439 45.2065 5.32176 44.1502 6.45239C43.0961 7.58058 42.5169 9.1337 42.5169 10.8437H43.1169ZM48.5659 5.23439C50.1689 5.23439 51.3064 5.73483 52.0442 6.50699C52.7847 7.2821 53.1543 8.36436 53.1543 9.58512H53.7543C53.7543 8.24588 53.3477 7.00277 52.478 6.09251C51.6055 5.17931 50.2988 4.63439 48.5659 4.63439V5.23439ZM53.1543 9.58512C53.1543 10.2315 53.0502 11.0941 52.937 11.4592L53.5101 11.6369C53.6483 11.1913 53.7543 10.2617 53.7543 9.58512H53.1543ZM53.2235 11.248H45.0617V11.848H53.2235V11.248ZM44.7635 11.5803C44.8737 12.6005 45.2361 13.4914 45.9165 14.1269C46.5988 14.7641 47.5654 15.1115 48.8173 15.1115V14.5115C47.6777 14.5115 46.8712 14.1976 46.3261 13.6884C45.7789 13.1774 45.4594 12.4365 45.36 11.5158L44.7635 11.5803ZM48.8173 15.1115C50.4067 15.1115 51.7485 14.4837 52.6291 13.813L52.2655 13.3357C51.4668 13.9441 50.2495 14.5115 48.8173 14.5115V15.1115ZM52.1831 13.7165L53.0433 15.316L53.5717 15.0318L52.7115 13.4323L52.1831 13.7165Z" fill="#15573F"/>
<path fill-rule="evenodd" clip-rule="evenodd" d="M60.2704 5.23303V6.93986C61.0467 5.78815 62.3478 5.04083 64.0472 5.04083C66.8793 5.04083 68.1804 7.19547 68.1804 9.96913V13.4462C68.1804 14.193 68.3901 14.7047 69.0617 14.7047C69.4393 14.7047 69.8375 14.5555 70.2156 14.3208L70.3624 16.0916C69.8586 16.3686 69.0617 16.6038 68.2432 16.6038C66.7536 16.6038 65.9984 15.7716 65.9984 13.9369V10.3101C65.9984 8.41205 65.096 7.08913 63.2915 7.08913C61.739 7.08913 60.648 8.28376 60.2704 9.49986V16.3901H58.0885V5.23303H60.2704Z" fill="#15573F"/>
<path fill-rule="evenodd" clip-rule="evenodd" d="M60.2704 5.23303V6.93986C61.0467 5.78815 62.3478 5.04083 64.0472 5.04083C66.8793 5.04083 68.1804 7.19547 68.1804 9.96913V13.4462C68.1804 14.193 68.3901 14.7047 69.0617 14.7047C69.4393 14.7047 69.8375 14.5555 70.2156 14.3208L70.3624 16.0916C69.8586 16.3686 69.0617 16.6038 68.2432 16.6038C66.7536 16.6038 65.9984 15.7716 65.9984 13.9369V10.3101C65.9984 8.41205 65.096 7.08913 63.2915 7.08913C61.739 7.08913 60.648 8.28376 60.2704 9.49986V16.3901H58.0885V5.23303H60.2704Z" stroke="#15573F" stroke-width="0.6"/>
<path fill-rule="evenodd" clip-rule="evenodd" d="M84.059 2.39624V5.23283H88.339V6.98209H84.059V12.5289C84.059 13.9797 84.6885 14.6626 85.8212 14.6626C86.6608 14.6626 87.6467 14.2567 88.2551 13.8089L88.9685 15.5367C87.9826 16.1553 86.6814 16.6036 85.1711 16.6036C83.1359 16.6036 81.877 15.345 81.877 12.9553V6.98209H79.8207V5.23283H81.877L82.1289 2.39624H84.059Z" fill="#1A825A"/>
<path fill-rule="evenodd" clip-rule="evenodd" d="M84.059 2.39624V5.23283H88.339V6.98209H84.059V12.5289C84.059 13.9797 84.6885 14.6626 85.8212 14.6626C86.6608 14.6626 87.6467 14.2567 88.2551 13.8089L88.9685 15.5367C87.9826 16.1553 86.6814 16.6036 85.1711 16.6036C83.1359 16.6036 81.877 15.345 81.877 12.9553V6.98209H79.8207V5.23283H81.877L82.1289 2.39624H84.059Z" stroke="#1A825A" stroke-width="0.6"/>
<path fill-rule="evenodd" clip-rule="evenodd" d="M95.2188 1.2439V6.91853C95.9951 5.74536 97.2962 5.04097 98.9956 5.04097C101.828 5.04097 103.129 7.1956 103.129 9.96926V13.4463C103.129 14.1932 103.338 14.7049 104.01 14.7049C104.388 14.7049 104.744 14.5556 105.164 14.321L105.311 16.0912C104.828 16.3688 104.031 16.6034 103.192 16.6034C101.702 16.6034 100.947 15.7712 100.947 13.9371V10.3102C100.947 8.4117 100.044 7.08877 98.2399 7.08877C96.6874 7.08877 95.5964 8.2839 95.2188 9.49999V16.3902H93.0368V1.2439H95.2188Z" fill="#1A825A"/>
<path fill-rule="evenodd" clip-rule="evenodd" d="M95.2188 1.2439V6.91853C95.9951 5.74536 97.2962 5.04097 98.9956 5.04097C101.828 5.04097 103.129 7.1956 103.129 9.96926V13.4463C103.129 14.1932 103.338 14.7049 104.01 14.7049C104.388 14.7049 104.744 14.5556 105.164 14.321L105.311 16.0912C104.828 16.3688 104.031 16.6034 103.192 16.6034C101.702 16.6034 100.947 15.7712 100.947 13.9371V10.3102C100.947 8.4117 100.044 7.08877 98.2399 7.08877C96.6874 7.08877 95.5964 8.2839 95.2188 9.49999V16.3902H93.0368V1.2439H95.2188Z" stroke="#1A825A" stroke-width="0.6"/>
<path fill-rule="evenodd" clip-rule="evenodd" d="M119.051 5.23303V13.4462C119.051 14.193 119.24 14.7047 119.911 14.7047C120.309 14.7047 120.687 14.5555 121.086 14.3208L121.254 16.0916C120.75 16.3686 119.911 16.6038 119.113 16.6038C117.917 16.6038 117.204 16.0701 116.952 14.9179C116.134 16.0062 114.791 16.6038 113.092 16.6038C110.259 16.6038 108.98 14.6194 108.98 11.6969V5.23303H111.162V11.3769C111.162 13.4247 111.875 14.5555 113.868 14.5555C115.442 14.5555 116.428 13.553 116.869 12.5716V5.23303H119.051Z" fill="#1A825A"/>
<path fill-rule="evenodd" clip-rule="evenodd" d="M119.051 5.23303V13.4462C119.051 14.193 119.24 14.7047 119.911 14.7047C120.309 14.7047 120.687 14.5555 121.086 14.3208L121.254 16.0916C120.75 16.3686 119.911 16.6038 119.113 16.6038C117.917 16.6038 117.204 16.0701 116.952 14.9179C116.134 16.0062 114.791 16.6038 113.092 16.6038C110.259 16.6038 108.98 14.6194 108.98 11.6969V5.23303H111.162V11.3769C111.162 13.4247 111.875 14.5555 113.868 14.5555C115.442 14.5555 116.428 13.553 116.869 12.5716V5.23303H119.051Z" stroke="#1A825A" stroke-width="0.6"/>
<path fill-rule="evenodd" clip-rule="evenodd" d="M127.44 5.23307V6.89697C128.195 5.76673 129.433 5.0199 131.112 5.0199C133.084 5.0199 134.217 5.80917 134.762 7.34526C135.455 6.02234 136.819 5.04087 138.749 5.04087C141.581 5.04087 142.756 7.19551 142.756 9.96917V13.4462C142.756 14.1931 142.966 14.7048 143.616 14.7048C143.994 14.7048 144.393 14.5555 144.791 14.3209L144.959 16.0916C144.477 16.3687 143.595 16.6038 142.819 16.6038C141.351 16.6038 140.574 15.7716 140.574 13.937V10.3101C140.574 8.41209 139.756 7.08917 137.952 7.08917C136.441 7.08917 135.476 8.17697 135.119 9.39307V16.3901H132.937V10.2892C132.937 8.39063 132.14 7.08917 130.336 7.08917C128.783 7.08917 127.818 8.19843 127.44 9.41453V16.3901H125.258V5.23307H127.44Z" fill="#1A825A"/>
<path fill-rule="evenodd" clip-rule="evenodd" d="M127.44 5.23307V6.89697C128.195 5.76673 129.433 5.0199 131.112 5.0199C133.084 5.0199 134.217 5.80917 134.762 7.34526C135.455 6.02234 136.819 5.04087 138.749 5.04087C141.581 5.04087 142.756 7.19551 142.756 9.96917V13.4462C142.756 14.1931 142.966 14.7048 143.616 14.7048C143.994 14.7048 144.393 14.5555 144.791 14.3209L144.959 16.0916C144.477 16.3687 143.595 16.6038 142.819 16.6038C141.351 16.6038 140.574 15.7716 140.574 13.937V10.3101C140.574 8.41209 139.756 7.08917 137.952 7.08917C136.441 7.08917 135.476 8.17697 135.119 9.39307V16.3901H132.937V10.2892C132.937 8.39063 132.14 7.08917 130.336 7.08917C128.783 7.08917 127.818 8.19843 127.44 9.41453V16.3901H125.258V5.23307H127.44Z" stroke="#1A825A" stroke-width="0.6"/>
<path fill-rule="evenodd" clip-rule="evenodd" d="M153.893 6.98231C152.676 6.98231 151.585 7.62231 150.955 8.28377V13.4038C151.543 14.0223 152.655 14.6623 153.893 14.6623C156.075 14.6623 157.502 13.0838 157.502 10.8008C157.502 8.53938 156.075 6.98231 153.893 6.98231ZM154.48 16.6038C152.907 16.6038 151.732 16.0277 150.955 15.1955V16.3901H148.774V1.24377H150.955V6.38524C151.753 5.59597 152.97 5.04134 154.48 5.04134C157.628 5.04134 159.747 7.4306 159.747 10.8008C159.747 14.1716 157.628 16.6038 154.48 16.6038Z" fill="#1A825A"/>
<path d="M150.955 8.28377L150.738 8.07697L150.655 8.16384V8.28377H150.955ZM150.955 13.4038H150.655V13.5236L150.738 13.6104L150.955 13.4038ZM150.955 15.1955L151.175 14.9908L150.655 14.4344V15.1955H150.955ZM150.955 16.3901V16.6901H151.255V16.3901H150.955ZM148.774 16.3901H148.474V16.6901H148.774V16.3901ZM148.774 1.24377V0.943774H148.474V1.24377H148.774ZM150.955 1.24377H151.255V0.943774H150.955V1.24377ZM150.955 6.38524H150.655V7.1043L151.166 6.59845L150.955 6.38524ZM153.893 6.68231C152.576 6.68231 151.41 7.37057 150.738 8.07697L151.173 8.49058C151.759 7.87405 152.776 7.28231 153.893 7.28231V6.68231ZM150.655 8.28377V13.4038H151.255V8.28377H150.655ZM150.738 13.6104C151.372 14.2778 152.559 14.9623 153.893 14.9623V14.3623C152.751 14.3623 151.714 13.7668 151.173 13.1971L150.738 13.6104ZM153.893 14.9623C155.06 14.9623 156.045 14.5382 156.736 13.7915C157.425 13.047 157.802 12.0046 157.802 10.8008H157.202C157.202 11.88 156.865 12.7683 156.296 13.3839C155.728 13.9972 154.908 14.3623 153.893 14.3623V14.9623ZM157.802 10.8008C157.802 9.60699 157.424 8.57482 156.735 7.83843C156.043 7.10013 155.059 6.68231 153.893 6.68231V7.28231C154.909 7.28231 155.729 7.64302 156.297 8.24863C156.866 8.85614 157.202 9.73324 157.202 10.8008H157.802ZM154.48 16.3038C152.985 16.3038 151.892 15.7589 151.175 14.9908L150.736 15.4002C151.573 16.2964 152.828 16.9038 154.48 16.9038V16.3038ZM150.655 15.1955V16.3901H151.255V15.1955H150.655ZM150.955 16.0901H148.774V16.6901H150.955V16.0901ZM149.074 16.3901V1.24377H148.474V16.3901H149.074ZM148.774 1.54377H150.955V0.943774H148.774V1.54377ZM150.655 1.24377V6.38524H151.255V1.24377H150.655ZM151.166 6.59845C151.905 5.86759 153.045 5.34134 154.48 5.34134V4.74134C152.895 4.74134 151.601 5.32435 150.744 6.17202L151.166 6.59845ZM154.48 5.34134C155.974 5.34134 157.208 5.90605 158.071 6.85872C158.937 7.81388 159.447 9.17825 159.447 10.8008H160.047C160.047 9.0532 159.497 7.53782 158.516 6.45578C157.533 5.37125 156.134 4.74134 154.48 4.74134V5.34134ZM159.447 10.8008C159.447 12.4239 158.937 13.7997 158.07 14.766C157.206 15.7296 155.972 16.3038 154.48 16.3038V16.9038C156.136 16.9038 157.535 16.2618 158.517 15.1666C159.497 14.0742 160.047 12.5486 160.047 10.8008H159.447Z" fill="#1A825A"/>
<path fill-rule="evenodd" clip-rule="evenodd" d="M165.388 13.6596C166.332 13.6596 166.877 14.1933 166.877 15.1533C166.877 16.1342 166.332 16.6459 165.388 16.6459C164.443 16.6459 163.919 16.1342 163.919 15.1533C163.919 14.1933 164.443 13.6596 165.388 13.6596Z" fill="#1A825A"/>
<path fill-rule="evenodd" clip-rule="evenodd" d="M165.388 13.6596C166.332 13.6596 166.877 14.1933 166.877 15.1533C166.877 16.1342 166.332 16.6459 165.388 16.6459C164.443 16.6459 163.919 16.1342 163.919 15.1533C163.919 14.1933 164.443 13.6596 165.388 13.6596Z" stroke="#1A825A" stroke-width="0.6"/>
</svg>
